<svg width="695" height="741" viewBox="0 0 695 741" fill="none" xmlns="http://www.w3.org/2000/svg">
<mask id="path-1-outside-1_1_2" maskUnits="userSpaceOnUse" x="126" y="43" width="442" height="659" fill="black">
<rect fill="white" x="126" y="43" width="442" height="659"/>
<path d="M422.432 63C427.954 63.0004 432.431 67.4776 432.432 73C432.432 78.5226 427.954 82.9996 422.432 83H403.863V262.687L548 342.846V566.408L347 678.19L146 566.408V342.846L288.977 263.332V83H273.891C268.368 83 263.891 78.5228 263.891 73C263.891 67.4774 268.368 63 273.891 63H422.432Z"/>
</mask>
<path d="M422.432 63C427.954 63.0004 432.431 67.4776 432.432 73C432.432 78.5226 427.954 82.9996 422.432 83H403.863V262.687L548 342.846V566.408L347 678.19L146 566.408V342.846L288.977 263.332V83H273.891C268.368 83 263.891 78.5228 263.891 73C263.891 67.4774 268.368 63 273.891 63H422.432Z" fill="white"/>
<path d="M422.432 63L422.433 43H422.432V63ZM432.432 73H452.432V72.9991L432.432 73ZM422.432 83V103H422.433L422.432 83ZM403.863 83V63H383.863V83H403.863ZM403.863 262.687H383.863V274.449L394.143 280.165L403.863 262.687ZM548 342.846H568V331.084L557.721 325.367L548 342.846ZM548 566.408L557.721 583.887L568 578.17V566.408H548ZM347 678.19L337.279 695.669L347 701.075L356.721 695.669L347 678.19ZM146 566.408H126V578.17L136.279 583.887L146 566.408ZM146 342.846L136.279 325.367L126 331.084V342.846H146ZM288.977 263.332L298.697 280.811L308.977 275.094V263.332H288.977ZM288.977 83H308.977V63H288.977V83ZM263.891 73L243.891 72.9991V73H263.891ZM422.432 63L422.43 83C416.909 82.9996 412.432 78.5242 412.432 73.0009L432.432 73L452.432 72.9991C452.431 56.4311 438.999 43.0013 422.433 43L422.432 63ZM432.432 73H412.432C412.432 67.4754 416.91 63.0004 422.43 63L422.432 83L422.433 103C438.999 102.999 452.432 89.5698 452.432 73H432.432ZM422.432 83V63H403.863V83V103H422.432V83ZM403.863 83H383.863V262.687H403.863H423.863V83H403.863ZM403.863 262.687L394.143 280.165L538.279 360.325L548 342.846L557.721 325.367L413.584 245.208L403.863 262.687ZM548 342.846H528V566.408H548H568V342.846H548ZM548 566.408L538.279 548.929L337.279 660.712L347 678.19L356.721 695.669L557.721 583.887L548 566.408ZM347 678.19L356.721 660.712L155.721 548.929L146 566.408L136.279 583.887L337.279 695.669L347 678.19ZM146 566.408H166V342.846H146H126V566.408H146ZM146 342.846L155.721 360.325L298.697 280.811L288.977 263.332L279.256 245.853L136.279 325.367L146 342.846ZM288.977 263.332H308.977V83H288.977H268.977V263.332H288.977ZM288.977 83V63H273.891V83V103H288.977V83ZM273.891 83V63C279.413 63 283.891 67.4772 283.891 73H263.891H243.891C243.891 89.5685 257.322 103 273.891 103V83ZM263.891 73L283.891 73.0009C283.89 78.5224 279.414 83 273.891 83V63V43C257.321 43 243.891 56.4323 243.891 72.9991L263.891 73ZM273.891 63V83H422.432V63V43H273.891V63Z" fill="#1E3A8A" mask="url(#path-1-outside-1_1_2)"/>
<path d="M347.5 250.19L532.396 353.19V559.19L347.5 662.19L162.604 559.19V353.19L347.5 250.19Z" fill="#93C4E6"/>
<path d="M302 95.1904C302 89.6676 306.477 85.1904 312 85.1904H381C386.523 85.1904 391 89.6676 391 95.1904V274.19H302V95.1904Z" fill="#93C4E6"/>
<mask id="path-5-outside-2_1_2" maskUnits="userSpaceOnUse" x="194" y="178.19" width="415" height="495" fill="black">
<rect fill="white" x="194" y="178.19" width="415" height="495"/>
<path d="M522.942 189.19C554.614 189.191 580.29 215.421 580.29 247.777C580.29 280.134 554.614 306.363 522.942 306.363C516.818 306.363 510.918 305.382 505.385 303.565C504.551 303.917 503.753 304.505 503.085 305.444C500.845 308.596 474.475 344.556 469.916 350.973C469.044 352.199 468.69 354.67 468.816 356.623C484.555 372.953 494.268 395.362 494.269 420.09C494.269 445.444 484.057 468.362 467.608 484.787C467.751 486.754 468.067 488.136 469.03 489.471C475.453 498.367 514.744 545.162 516.232 547.019C517.109 548.112 518.051 548.852 518.992 549.34C525.675 546.553 532.988 545.018 540.652 545.018C572.324 545.018 598 571.247 598 603.604C598 635.96 572.325 662.19 540.652 662.19C508.98 662.19 483.305 635.96 483.305 603.604C483.305 591.32 487.005 579.92 493.329 570.502C493.087 569.492 492.613 568.461 491.808 567.456C488.611 563.469 452.385 516.956 445.88 508.842C444.305 506.877 440.067 505.23 437.535 505.121C436.951 505.096 436.468 505.092 436.071 505.099C426.603 508.628 416.38 510.555 405.717 510.555C377.809 510.555 352.916 497.366 336.686 476.756C335.462 476.489 334.019 476.576 332.473 477.475C329.093 479.437 289.859 501.537 282.985 505.529C281.926 506.145 280.796 507.567 279.994 508.996C280.586 511.717 280.901 514.544 280.901 517.447C280.901 538.86 263.91 556.218 242.95 556.218C221.991 556.218 205 538.859 205 517.447C205 496.035 221.991 478.677 242.95 478.677C251.822 478.677 259.982 481.787 266.444 486.998C266.516 487.008 266.587 487.018 266.658 487.025L266.797 487.04C269.437 487.307 270.888 487.453 272.469 486.633C279.897 482.777 319.81 458.448 321.378 457.537C322.669 456.787 323.481 455.878 323.985 454.964C319.593 444.232 317.165 432.45 317.165 420.09C317.165 370.128 356.811 329.626 405.717 329.626C419.871 329.626 433.251 333.018 445.117 339.051L445.23 339.021C447.883 338.303 449.34 337.909 450.438 336.528C455.593 330.04 481.491 291.673 482.534 290.205C482.657 290.032 482.767 289.857 482.868 289.686C472.21 279.048 465.595 264.202 465.595 247.777C465.595 215.421 491.27 189.19 522.942 189.19Z"/>
</mask>
<path d="M522.942 189.19C554.614 189.191 580.29 215.421 580.29 247.777C580.29 280.134 554.614 306.363 522.942 306.363C516.818 306.363 510.918 305.382 505.385 303.565C504.551 303.917 503.753 304.505 503.085 305.444C500.845 308.596 474.475 344.556 469.916 350.973C469.044 352.199 468.69 354.67 468.816 356.623C484.555 372.953 494.268 395.362 494.269 420.09C494.269 445.444 484.057 468.362 467.608 484.787C467.751 486.754 468.067 488.136 469.03 489.471C475.453 498.367 514.744 545.162 516.232 547.019C517.109 548.112 518.051 548.852 518.992 549.34C525.675 546.553 532.988 545.018 540.652 545.018C572.324 545.018 598 571.247 598 603.604C598 635.96 572.325 662.19 540.652 662.19C508.98 662.19 483.305 635.96 483.305 603.604C483.305 591.32 487.005 579.92 493.329 570.502C493.087 569.492 492.613 568.461 491.808 567.456C488.611 563.469 452.385 516.956 445.88 508.842C444.305 506.877 440.067 505.23 437.535 505.121C436.951 505.096 436.468 505.092 436.071 505.099C426.603 508.628 416.38 510.555 405.717 510.555C377.809 510.555 352.916 497.366 336.686 476.756C335.462 476.489 334.019 476.576 332.473 477.475C329.093 479.437 289.859 501.537 282.985 505.529C281.926 506.145 280.796 507.567 279.994 508.996C280.586 511.717 280.901 514.544 280.901 517.447C280.901 538.86 263.91 556.218 242.95 556.218C221.991 556.218 205 538.859 205 517.447C205 496.035 221.991 478.677 242.95 478.677C251.822 478.677 259.982 481.787 266.444 486.998C266.516 487.008 266.587 487.018 266.658 487.025L266.797 487.04C269.437 487.307 270.888 487.453 272.469 486.633C279.897 482.777 319.81 458.448 321.378 457.537C322.669 456.787 323.481 455.878 323.985 454.964C319.593 444.232 317.165 432.45 317.165 420.09C317.165 370.128 356.811 329.626 405.717 329.626C419.871 329.626 433.251 333.018 445.117 339.051L445.23 339.021C447.883 338.303 449.34 337.909 450.438 336.528C455.593 330.04 481.491 291.673 482.534 290.205C482.657 290.032 482.767 289.857 482.868 289.686C472.21 279.048 465.595 264.202 465.595 247.777C465.595 215.421 491.27 189.19 522.942 189.19Z" fill="#1E3A8A"/>
<path d="M522.942 189.19L522.942 178.19H522.942V189.19ZM580.29 247.777L591.29 247.777V247.777H580.29ZM522.942 306.363V317.363H522.942L522.942 306.363ZM505.385 303.565L508.815 293.114L504.907 291.831L501.116 293.427L505.385 303.565ZM503.085 305.444L494.118 299.072L494.118 299.073L503.085 305.444ZM469.916 350.973L460.949 344.601L460.949 344.601L469.916 350.973ZM468.816 356.623L457.839 357.332L458.099 361.354L460.896 364.257L468.816 356.623ZM494.269 420.09H505.269V420.09L494.269 420.09ZM467.608 484.787L459.836 477.003L456.273 480.561L456.637 485.583L467.608 484.787ZM469.03 489.471L460.111 495.909L460.112 495.909L469.03 489.471ZM516.232 547.019L524.815 540.138L524.814 540.137L516.232 547.019ZM518.992 549.34L513.935 559.108L518.491 561.467L523.226 559.492L518.992 549.34ZM540.652 545.018V534.018V545.018ZM598 603.604H609V603.603L598 603.604ZM540.652 662.19V673.19V662.19ZM483.305 603.604L472.305 603.603V603.604H483.305ZM493.329 570.502L502.461 576.634L505.15 572.631L504.027 567.941L493.329 570.502ZM491.808 567.456L483.225 574.337L483.225 574.337L491.808 567.456ZM445.88 508.842L454.462 501.961L454.462 501.961L445.88 508.842ZM437.535 505.121L438.009 494.131L438.008 494.131L437.535 505.121ZM436.071 505.099L435.884 494.1L433.997 494.132L432.229 494.791L436.071 505.099ZM405.717 510.555V521.555H405.717L405.717 510.555ZM336.686 476.756L345.327 469.95L342.886 466.85L339.03 466.009L336.686 476.756ZM332.473 477.475L337.997 486.987L337.997 486.987L332.473 477.475ZM282.985 505.529L277.461 496.017H277.461L282.985 505.529ZM279.994 508.996L270.4 503.615L268.358 507.256L269.246 511.335L279.994 508.996ZM280.901 517.447H291.901H280.901ZM242.95 556.218L242.95 567.218H242.95V556.218ZM205 517.447H194H205ZM242.95 478.677V467.677H242.95L242.95 478.677ZM266.444 486.998L259.539 495.561L261.936 497.493L264.987 497.901L266.444 486.998ZM266.658 487.025L267.814 476.086L267.79 476.084L267.765 476.081L266.658 487.025ZM266.797 487.04L265.641 497.979L265.665 497.982L265.689 497.984L266.797 487.04ZM272.469 486.633L277.536 496.396L277.536 496.396L272.469 486.633ZM321.378 457.537L326.903 467.049L326.903 467.049L321.378 457.537ZM323.985 454.964L333.617 460.277L336.16 455.668L334.166 450.797L323.985 454.964ZM317.165 420.09L306.165 420.09V420.09H317.165ZM405.717 329.626L405.717 318.626H405.717V329.626ZM445.117 339.051L440.132 348.856L443.887 350.765L447.957 349.678L445.117 339.051ZM445.23 339.021L448.07 349.648L448.087 349.643L448.103 349.639L445.23 339.021ZM450.438 336.528L459.049 343.372L459.049 343.372L450.438 336.528ZM482.534 290.205L473.567 283.834L473.567 283.834L482.534 290.205ZM482.868 289.686L492.337 295.284L496.683 287.933L490.639 281.9L482.868 289.686ZM465.595 247.777H454.595V247.777L465.595 247.777ZM522.942 189.19L522.942 200.19C548.319 200.191 569.29 221.273 569.29 247.777H580.29H591.29C591.29 209.569 560.91 178.191 522.942 178.19L522.942 189.19ZM580.29 247.777L569.29 247.777C569.29 274.281 548.319 295.363 522.942 295.363L522.942 306.363L522.942 317.363C560.91 317.363 591.29 285.986 591.29 247.777L580.29 247.777ZM522.942 306.363V295.363C518.001 295.363 513.258 294.572 508.815 293.114L505.385 303.565L501.955 314.017C508.578 316.191 515.635 317.363 522.942 317.363V306.363ZM505.385 303.565L501.116 293.427C498.442 294.553 496 296.425 494.118 299.072L503.085 305.444L512.052 311.816C511.806 312.161 511.467 312.537 511.025 312.889C510.584 313.24 510.115 313.509 509.653 313.703L505.385 303.565ZM503.085 305.444L494.118 299.073C493.054 300.57 485.983 310.238 478.489 320.495C471.078 330.637 463.283 341.316 460.949 344.601L469.916 350.973L478.883 357.344C481.108 354.213 488.777 343.704 496.252 333.474C503.643 323.359 510.876 313.471 512.052 311.816L503.085 305.444ZM469.916 350.973L460.949 344.601C459.139 347.149 458.461 349.931 458.164 351.587C457.823 353.49 457.72 355.485 457.839 357.332L468.816 356.623L479.794 355.914C479.792 355.892 479.789 355.812 479.796 355.696C479.802 355.581 479.814 355.497 479.82 355.464C479.828 355.418 479.813 355.529 479.729 355.768C479.684 355.894 479.607 356.093 479.484 356.343C479.362 356.59 479.17 356.939 478.883 357.344L469.916 350.973ZM468.816 356.623L460.896 364.257C474.717 378.596 483.268 398.291 483.269 420.09L494.269 420.09L505.269 420.09C505.268 392.434 494.394 367.31 476.737 348.989L468.816 356.623ZM494.269 420.09H483.269C483.269 442.441 474.278 462.582 459.836 477.003L467.608 484.787L475.381 492.571C493.836 474.142 505.269 448.448 505.269 420.09H494.269ZM467.608 484.787L456.637 485.583C456.841 488.393 457.408 492.163 460.111 495.909L469.03 489.471L477.949 483.033C478.075 483.207 478.211 483.428 478.335 483.686C478.458 483.942 478.538 484.169 478.586 484.337C478.632 484.495 478.64 484.569 478.631 484.513C478.622 484.45 478.602 484.294 478.58 483.991L467.608 484.787ZM469.03 489.471L460.112 495.909C463.599 500.74 475.353 515.045 486.013 527.904C491.43 534.439 496.69 540.751 500.685 545.541C502.686 547.939 504.363 549.948 505.591 551.421C506.205 552.158 506.701 552.753 507.065 553.192C507.247 553.411 507.392 553.586 507.499 553.716C507.621 553.863 507.658 553.91 507.651 553.9L516.232 547.019L524.814 540.137C522.747 537.559 484.199 491.69 477.949 483.032L469.03 489.471ZM516.232 547.019L507.65 553.899C509.442 556.135 511.567 557.882 513.935 559.108L518.992 549.34L524.05 539.572C524.275 539.688 524.459 539.814 524.599 539.93C524.738 540.046 524.806 540.127 524.815 540.138L516.232 547.019ZM518.992 549.34L523.226 559.492C528.594 557.254 534.47 556.018 540.652 556.018V545.018V534.018C531.506 534.018 522.756 535.852 514.758 539.187L518.992 549.34ZM540.652 545.018V556.018C566.029 556.018 587 577.1 587 603.604L598 603.604L609 603.603C609 565.395 578.62 534.018 540.652 534.018V545.018ZM598 603.604H587C587 630.108 566.029 651.19 540.652 651.19V662.19V673.19C578.62 673.19 609 641.812 609 603.604H598ZM540.652 662.19V651.19C515.276 651.19 494.305 630.108 494.305 603.604H483.305H472.305C472.305 641.812 502.684 673.19 540.652 673.19V662.19ZM483.305 603.604L494.305 603.604C494.305 593.557 497.325 584.283 502.461 576.634L493.329 570.502L484.197 564.37C476.685 575.556 472.305 589.083 472.305 603.603L483.305 603.604ZM493.329 570.502L504.027 567.941C503.408 565.356 502.213 562.849 500.39 560.575L491.808 567.456L483.225 574.337C483.134 574.223 483.015 574.048 482.9 573.813C482.785 573.578 482.694 573.324 482.631 573.063L493.329 570.502ZM491.808 567.456L500.39 560.575C498.849 558.653 489.072 546.129 478.752 532.923C468.515 519.823 457.77 506.088 454.462 501.961L445.88 508.842L437.298 515.722C440.495 519.71 451.116 533.288 461.417 546.47C471.636 559.546 481.57 572.272 483.225 574.337L491.808 567.456ZM445.88 508.842L454.462 501.961C451.985 498.872 448.55 497.092 446.383 496.168C444.022 495.161 440.996 494.26 438.009 494.131L437.535 505.121L437.062 516.111C436.958 516.106 436.883 516.1 436.84 516.095C436.796 516.09 436.774 516.086 436.774 516.086C436.773 516.086 436.788 516.089 436.819 516.095C436.849 516.102 436.89 516.111 436.941 516.124C437.046 516.151 437.175 516.189 437.32 516.239C437.465 516.288 437.611 516.344 437.75 516.403C437.889 516.463 438.006 516.519 438.097 516.567C438.189 516.615 438.231 516.643 438.229 516.641C438.226 516.64 438.206 516.626 438.171 516.6C438.136 516.574 438.079 516.53 438.006 516.467C437.932 516.404 437.834 516.314 437.717 516.196C437.601 516.078 437.457 515.921 437.298 515.723L445.88 508.842ZM437.535 505.121L438.008 494.131C437.214 494.097 436.511 494.09 435.884 494.1L436.071 505.099L436.259 516.097C436.426 516.094 436.689 516.095 437.062 516.111L437.535 505.121ZM436.071 505.099L432.229 494.791C423.968 497.871 415.045 499.555 405.717 499.555L405.717 510.555L405.717 521.555C417.715 521.555 429.238 519.385 439.913 515.406L436.071 505.099ZM405.717 510.555V499.555C381.374 499.555 359.595 488.067 345.327 469.95L336.686 476.756L328.044 483.562C346.237 506.664 374.244 521.555 405.717 521.555V510.555ZM336.686 476.756L339.03 466.009C335.342 465.204 331.06 465.574 326.948 467.963L332.473 477.475L337.997 486.987C337.59 487.223 336.993 487.463 336.252 487.568C335.525 487.672 334.867 487.618 334.341 487.503L336.686 476.756ZM332.473 477.475L326.948 467.963C325.332 468.901 314.784 474.858 303.626 481.165C292.578 487.41 280.97 493.979 277.461 496.017L282.985 505.529L288.51 515.041C291.875 513.087 303.32 506.61 314.453 500.317C325.475 494.086 336.234 488.011 337.997 486.987L332.473 477.475ZM282.985 505.529L277.461 496.017C273.826 498.128 271.507 501.642 270.4 503.615L279.994 508.996L289.588 514.378C289.632 514.299 289.682 514.219 289.73 514.148C289.78 514.076 289.808 514.042 289.804 514.047C289.8 514.051 289.781 514.073 289.746 514.11C289.712 514.146 289.653 514.206 289.567 514.283C289.419 514.418 289.07 514.716 288.51 515.041L282.985 505.529ZM279.994 508.996L269.246 511.335C269.673 513.299 269.901 515.343 269.901 517.447H280.901H291.901C291.901 513.746 291.499 510.134 290.743 506.657L279.994 508.996ZM280.901 517.447H269.901C269.901 533.007 257.614 545.218 242.95 545.218V556.218V567.218C270.205 567.218 291.901 544.712 291.901 517.447H280.901ZM242.95 556.218L242.95 545.218C228.287 545.218 216 533.007 216 517.447H205H194C194 544.712 215.695 567.217 242.95 567.218L242.95 556.218ZM205 517.447H216C216 501.887 228.286 489.677 242.95 489.677L242.95 478.677L242.95 467.677C215.695 467.677 194 490.183 194 517.447H205ZM242.95 478.677V489.677C249.198 489.677 254.944 491.856 259.539 495.561L266.444 486.998L273.349 478.435C265.02 471.719 254.446 467.677 242.95 467.677V478.677ZM266.444 486.998L264.987 497.901C264.982 497.9 264.979 497.9 265.001 497.903C265.017 497.905 265.056 497.911 265.1 497.916C265.187 497.928 265.351 497.949 265.551 497.97L266.658 487.025L267.765 476.081C267.832 476.088 267.887 476.094 267.926 476.099C267.965 476.104 267.992 476.107 268.002 476.109C268.01 476.11 268.014 476.11 267.994 476.108C267.981 476.106 267.943 476.101 267.902 476.095L266.444 486.998ZM266.658 487.025L265.503 497.965L265.641 497.979L266.797 487.04L267.952 476.101L267.814 476.086L266.658 487.025ZM266.797 487.04L265.689 497.984C267.558 498.173 272.522 498.999 277.536 496.396L272.469 486.633L267.401 476.87C267.762 476.682 268.199 476.511 268.679 476.394C269.141 476.281 269.486 476.257 269.627 476.252C269.737 476.248 269.696 476.257 269.368 476.233C269.213 476.222 269.021 476.206 268.771 476.182C268.517 476.158 268.242 476.13 267.905 476.096L266.797 487.04ZM272.469 486.633L277.536 496.396C281.643 494.264 293.88 486.97 304.791 480.407C310.356 477.059 315.735 473.806 319.816 471.335C321.861 470.097 323.571 469.061 324.826 468.302C325.453 467.922 325.958 467.617 326.33 467.393C326.516 467.281 326.662 467.193 326.77 467.128C326.896 467.053 326.924 467.036 326.903 467.049L321.378 457.537L315.853 448.025C313.534 449.372 274.585 473.141 267.401 476.87L272.469 486.633ZM321.378 457.537L326.903 467.049C329.892 465.312 332.135 462.963 333.617 460.277L323.985 454.964L314.354 449.65C314.569 449.26 314.833 448.905 315.128 448.605C315.422 448.306 315.686 448.122 315.853 448.025L321.378 457.537ZM323.985 454.964L334.166 450.797C330.306 441.367 328.165 431 328.165 420.09H317.165H306.165C306.165 433.9 308.879 447.096 313.805 459.131L323.985 454.964ZM317.165 420.09L328.165 420.09C328.165 375.98 363.107 340.626 405.717 340.626V329.626V318.626C350.516 318.626 306.165 364.275 306.165 420.09L317.165 420.09ZM405.717 329.626L405.717 340.626C418.093 340.626 429.769 343.588 440.132 348.856L445.117 339.051L450.102 329.245C436.733 322.448 421.65 318.626 405.717 318.626L405.717 329.626ZM445.117 339.051L447.957 349.678L448.07 349.648L445.23 339.021L442.39 328.393L442.277 328.424L445.117 339.051ZM445.23 339.021L448.103 349.639C449.778 349.186 455.273 348.124 459.049 343.372L450.438 336.528L441.826 329.684C442.155 329.271 442.571 328.862 443.054 328.511C443.515 328.174 443.891 327.996 444.046 327.929C444.171 327.875 444.15 327.895 443.823 327.994C443.483 328.097 443.064 328.211 442.358 328.402L445.23 339.021ZM450.438 336.528L459.049 343.372C461.939 339.735 469.998 328.076 477.104 317.699C480.739 312.391 484.243 307.243 486.9 303.335C488.232 301.377 489.344 299.74 490.162 298.539C490.57 297.939 490.899 297.456 491.14 297.102C491.413 296.703 491.508 296.566 491.502 296.576L482.534 290.205L473.567 283.834C471.955 286.103 446.787 323.442 441.826 329.685L450.438 336.528ZM482.534 290.205L491.501 296.576C491.86 296.072 492.139 295.618 492.337 295.284L482.868 289.686L473.399 284.087C473.394 284.097 473.455 283.992 473.567 283.834L482.534 290.205ZM482.868 289.686L490.639 281.9C481.989 273.267 476.595 261.198 476.595 247.777L465.595 247.777L454.595 247.777C454.595 267.206 462.431 284.829 475.097 297.471L482.868 289.686ZM465.595 247.777H476.595C476.595 221.273 497.566 200.19 522.942 200.19V189.19V178.19C484.974 178.19 454.595 209.569 454.595 247.777H465.595Z" fill="white" mask="url(#path-5-outside-2_1_2)"/>
<circle cx="597.5" cy="305.69" r="17.5" fill="#1E3A8A"/>
<circle cx="625.5" cy="625.69" r="21.5" fill="#1E3A8A" stroke="white" stroke-width="8"/>
<circle cx="365.5" cy="522.69" r="16.5" fill="#1E3A8A" stroke="white" stroke-width="8"/>
<path d="M271.5 406.69C278.499 406.69 284.5 412.111 284.5 419.19C284.5 426.27 278.499 431.69 271.5 431.69C264.501 431.69 258.5 426.27 258.5 419.19C258.5 412.111 264.501 406.69 271.5 406.69Z" fill="#1E3A8A" stroke="white" stroke-width="7"/>
</svg>
