<svg width="1641" height="817" viewBox="0 0 1641 817" fill="none" xmlns="http://www.w3.org/2000/svg">
<g clip-path="url(#clip0_4_39)">
<path d="M734 555C715.6 555 702.5 550.1 694.7 540.3C686.9 530.5 683 516.5 683 498.3V406.2H731L731.3 486.6C731.3 495.6 732.9 502 736.1 505.8C739.3 509.4 745.8 511.2 755.6 511.2C765 511.2 771.3 509.6 774.5 506.4C777.9 503 779.7 497.3 779.9 489.3V406.2H827.9V552.3H782.3L779.9 535.8H779C776.4 541.6 771.1 546.3 763.1 549.9C755.1 553.3 745.4 555 734 555ZM909.132 351.9C909.732 359.1 910.032 365.1 910.032 369.9C910.032 372.7 909.932 375.6 909.732 378.6C909.732 381.4 909.532 384.6 909.132 388.2C904.932 389 900.832 389.6 896.832 390C892.832 390.4 888.832 390.6 884.832 390.6C881.032 390.6 877.132 390.4 873.132 390C869.332 389.6 865.432 389 861.432 388.2C861.032 384.8 860.732 381.7 860.532 378.9C860.332 375.9 860.232 373 860.232 370.2C860.232 367.6 860.332 364.8 860.532 361.8C860.732 358.8 861.032 355.5 861.432 351.9C865.432 350.9 869.432 350.3 873.432 350.1C877.632 349.7 881.732 349.5 885.732 349.5C889.532 349.5 893.332 349.7 897.132 350.1C901.132 350.3 905.132 350.9 909.132 351.9ZM909.132 552.3H861.132V406.2H909.132V552.3ZM1123.85 404.7C1138.65 404.7 1150.35 409.6 1158.95 419.4C1167.75 429.2 1172.15 446.2 1172.15 470.4V552.3H1124.15L1123.85 476.4C1123.85 466.6 1122.35 459.5 1119.35 455.1C1116.55 450.7 1110.95 448.5 1102.55 448.5C1094.15 448.5 1088.45 450.7 1085.45 455.1C1082.65 459.5 1081.25 466.6 1081.25 476.4V552.3H1033.25L1032.95 476.4C1032.95 466.6 1031.45 459.5 1028.45 455.1C1025.65 450.7 1020.05 448.5 1011.65 448.5C1003.25 448.5 997.548 450.7 994.548 455.1C991.748 459.5 990.348 466.6 990.348 476.4V552.3H942.348V406.2H987.948L990.348 432.9H991.248C993.848 424.1 998.348 417.2 1004.75 412.2C1011.35 407.2 1020.65 404.7 1032.65 404.7C1044.65 404.7 1054.05 407.2 1060.85 412.2C1067.85 417.2 1072.35 424.1 1074.35 432.9H1075.25C1077.85 423.9 1082.85 417 1090.25 412.2C1097.85 407.2 1109.05 404.7 1123.85 404.7ZM1333.84 547.5C1328.24 549.5 1320.44 551.3 1310.44 552.9C1300.64 554.3 1288.94 555 1275.34 555C1258.14 555 1243.44 552.8 1231.24 548.4C1219.24 543.8 1210.14 536.1 1203.94 525.3C1197.74 514.3 1194.64 499.1 1194.64 479.7C1194.64 453.3 1200.64 434.2 1212.64 422.4C1224.84 410.6 1243.64 404.7 1269.04 404.7C1287.24 404.7 1301.54 407.3 1311.94 412.5C1322.54 417.7 1330.04 425.1 1334.44 434.7C1339.04 444.1 1341.34 455.3 1341.34 468.3C1341.34 472.1 1341.14 476.2 1340.74 480.6C1340.54 485 1340.04 489.3 1339.24 493.5L1338.04 494.7H1239.34C1240.74 503.5 1244.84 509.3 1251.64 512.1C1258.64 514.9 1269.94 516.3 1285.54 516.3C1295.94 516.3 1304.54 516.1 1311.34 515.7C1318.34 515.1 1325.44 514.3 1332.64 513.3L1333.84 514.2V547.5ZM1299.64 463.2C1299.64 458.4 1298.84 454.3 1297.24 450.9C1295.84 447.3 1292.94 444.6 1288.54 442.8C1284.14 440.8 1277.64 439.8 1269.04 439.8C1256.44 439.8 1248.14 442 1244.14 446.4C1240.34 450.6 1238.44 456.2 1238.44 463.2H1299.64ZM1465.26 477.9L1509.66 552.3H1456.26L1431.66 507.6H1431.06L1406.46 552.3H1351.86L1397.46 477.9V476.7L1355.16 406.2H1407.66L1431.06 451.8H1431.66L1455.06 406.2H1507.56L1465.26 476.7V477.9Z" fill="#1E3A8A"/>
<path d="M393.553 601.478L451.474 565.565L542.78 712.825L484.859 748.738L393.553 601.478Z" fill="#1E3A8A"/>
<mask id="path-3-outside-1_4_39" maskUnits="userSpaceOnUse" x="224.648" y="212" width="263" height="395" fill="black">
<rect fill="white" x="224.648" y="212" width="263" height="395"/>
<path d="M397.799 232C403.321 232 407.799 236.477 407.799 242C407.799 247.523 403.322 252 397.799 252H387.512V349.052L467.367 394.291V520.461L356.008 583.547L244.648 520.461V394.291L323.861 349.416V252H315.503C309.98 252 305.503 247.523 305.503 242C305.503 236.477 309.98 232 315.503 232H397.799Z"/>
</mask>
<path d="M397.799 232C403.321 232 407.799 236.477 407.799 242C407.799 247.523 403.322 252 397.799 252H387.512V349.052L467.367 394.291V520.461L356.008 583.547L244.648 520.461V394.291L323.861 349.416V252H315.503C309.98 252 305.503 247.523 305.503 242C305.503 236.477 309.98 232 315.503 232H397.799Z" fill="white"/>
<path d="M397.799 232L397.799 212H397.799V232ZM407.799 242H427.799V241.999L407.799 242ZM397.799 252V272H397.799L397.799 252ZM387.512 252V232H367.512V252H387.512ZM387.512 349.052H367.512V360.708L377.653 366.453L387.512 349.052ZM467.367 394.291H487.367V382.635L477.225 376.889L467.367 394.291ZM467.367 520.461L477.225 537.863L487.367 532.117V520.461H467.367ZM356.008 583.547L346.15 600.949L356.008 606.533L365.866 600.949L356.008 583.547ZM244.648 520.461H224.648V532.117L234.79 537.863L244.648 520.461ZM244.648 394.291L234.79 376.889L224.648 382.635V394.291H244.648ZM323.861 349.416L333.72 366.818L343.861 361.072V349.416H323.861ZM323.861 252H343.861V232H323.861V252ZM315.503 252L315.503 272H315.503V252ZM305.503 242L285.503 241.999V242H305.503ZM315.503 232V212H315.503L315.503 232ZM397.799 232L397.798 252C392.276 252 387.799 247.523 387.799 242.001L407.799 242L427.799 241.999C427.798 225.432 414.367 212 397.799 212L397.799 232ZM407.799 242H387.799C387.799 236.477 392.276 232 397.798 232L397.799 252L397.799 272C414.367 272 427.799 258.569 427.799 242H407.799ZM397.799 252V232H387.512V252V272H397.799V252ZM387.512 252H367.512V349.052H387.512H407.512V252H387.512ZM387.512 349.052L377.653 366.453L457.509 411.693L467.367 394.291L477.225 376.889L397.37 331.65L387.512 349.052ZM467.367 394.291H447.367V520.461H467.367H487.367V394.291H467.367ZM467.367 520.461L457.509 503.059L346.15 566.145L356.008 583.547L365.866 600.949L477.225 537.863L467.367 520.461ZM356.008 583.547L365.866 566.145L254.507 503.059L244.648 520.461L234.79 537.863L346.15 600.949L356.008 583.547ZM244.648 520.461H264.648V394.291H244.648H224.648V520.461H244.648ZM244.648 394.291L254.507 411.693L333.72 366.818L323.861 349.416L314.003 332.014L234.79 376.889L244.648 394.291ZM323.861 349.416H343.861V252H323.861H303.861V349.416H323.861ZM323.861 252V232H315.503V252V272H323.861V252ZM315.503 252L315.503 232C321.026 232 325.503 236.477 325.503 242H305.503H285.503C285.503 258.569 298.934 272 315.503 272L315.503 252ZM305.503 242L325.503 242.001C325.503 247.523 321.026 252 315.503 252L315.503 232L315.503 212C298.934 212 285.503 225.432 285.503 241.999L305.503 242ZM315.503 232V252H397.799V232V212H315.503V232Z" fill="#1E3A8A" mask="url(#path-3-outside-1_4_39)"/>
<path d="M356.5 341.547L459.124 399.797V516.297L356.5 574.547L253.876 516.297V399.797L356.5 341.547Z" fill="#93C4E6"/>
<path d="M331 258.547C331 253.024 335.477 248.547 341 248.547H370C375.523 248.547 380 253.024 380 258.547V355.547H331V258.547Z" fill="#93C4E6"/>
<mask id="path-7-outside-2_4_39" maskUnits="userSpaceOnUse" x="266.336" y="296.573" width="240" height="289" fill="black">
<rect fill="white" x="266.336" y="296.573" width="240" height="289"/>
<path d="M453.484 307.573C471.032 307.573 485.257 322.377 485.257 340.638C485.257 358.898 471.032 373.702 453.484 373.702C450.092 373.702 446.825 373.146 443.76 372.121C443.297 372.319 442.854 372.652 442.483 373.184C441.242 374.964 426.632 395.257 424.106 398.878C423.623 399.571 423.427 400.967 423.497 402.069C432.216 411.285 437.599 423.93 437.599 437.885C437.599 452.192 431.941 465.121 422.83 474.391C422.909 475.504 423.081 476.286 423.616 477.041C427.175 482.062 448.946 508.474 449.768 509.519C450.254 510.137 450.778 510.554 451.301 510.829C455.002 509.257 459.052 508.389 463.297 508.389C480.844 508.389 495.068 523.192 495.068 541.453C495.068 559.714 480.844 574.516 463.297 574.517C445.75 574.517 431.524 559.714 431.524 541.453C431.524 534.521 433.575 528.088 437.078 522.773C436.944 522.203 436.682 521.62 436.235 521.053C434.465 518.803 414.394 492.552 410.79 487.973C409.917 486.864 407.57 485.935 406.167 485.873C405.843 485.859 405.576 485.857 405.355 485.86C400.11 487.852 394.446 488.939 388.538 488.939C373.078 488.939 359.291 481.495 350.299 469.866C349.62 469.714 348.819 469.762 347.96 470.271C346.089 471.377 324.35 483.85 320.542 486.104C319.955 486.451 319.329 487.254 318.885 488.061C319.213 489.596 319.388 491.191 319.388 492.829C319.388 504.913 309.974 514.71 298.361 514.71C286.749 514.71 277.336 504.913 277.336 492.829C277.336 480.745 286.749 470.949 298.361 470.949C303.277 470.949 307.799 472.704 311.379 475.646C311.418 475.651 311.457 475.657 311.496 475.661C313.008 475.817 313.825 475.911 314.716 475.439C318.831 473.264 340.944 459.532 341.812 459.019C342.529 458.594 342.978 458.079 343.257 457.562C340.824 451.506 339.479 444.859 339.479 437.885C339.479 409.688 361.443 386.83 388.538 386.83C396.378 386.83 403.788 388.747 410.361 392.15C411.875 391.733 412.698 391.517 413.315 390.726C416.172 387.063 430.522 365.408 431.098 364.582C431.166 364.484 431.228 364.385 431.284 364.287C425.38 358.284 421.713 349.907 421.713 340.638C421.713 322.377 435.937 307.573 453.484 307.573Z"/>
</mask>
<path d="M453.484 307.573C471.032 307.573 485.257 322.377 485.257 340.638C485.257 358.898 471.032 373.702 453.484 373.702C450.092 373.702 446.825 373.146 443.76 372.121C443.297 372.319 442.854 372.652 442.483 373.184C441.242 374.964 426.632 395.257 424.106 398.878C423.623 399.571 423.427 400.967 423.497 402.069C432.216 411.285 437.599 423.93 437.599 437.885C437.599 452.192 431.941 465.121 422.83 474.391C422.909 475.504 423.081 476.286 423.616 477.041C427.175 482.062 448.946 508.474 449.768 509.519C450.254 510.137 450.778 510.554 451.301 510.829C455.002 509.257 459.052 508.389 463.297 508.389C480.844 508.389 495.068 523.192 495.068 541.453C495.068 559.714 480.844 574.516 463.297 574.517C445.75 574.517 431.524 559.714 431.524 541.453C431.524 534.521 433.575 528.088 437.078 522.773C436.944 522.203 436.682 521.62 436.235 521.053C434.465 518.803 414.394 492.552 410.79 487.973C409.917 486.864 407.57 485.935 406.167 485.873C405.843 485.859 405.576 485.857 405.355 485.86C400.11 487.852 394.446 488.939 388.538 488.939C373.078 488.939 359.291 481.495 350.299 469.866C349.62 469.714 348.819 469.762 347.96 470.271C346.089 471.377 324.35 483.85 320.542 486.104C319.955 486.451 319.329 487.254 318.885 488.061C319.213 489.596 319.388 491.191 319.388 492.829C319.388 504.913 309.974 514.71 298.361 514.71C286.749 514.71 277.336 504.913 277.336 492.829C277.336 480.745 286.749 470.949 298.361 470.949C303.277 470.949 307.799 472.704 311.379 475.646C311.418 475.651 311.457 475.657 311.496 475.661C313.008 475.817 313.825 475.911 314.716 475.439C318.831 473.264 340.944 459.532 341.812 459.019C342.529 458.594 342.978 458.079 343.257 457.562C340.824 451.506 339.479 444.859 339.479 437.885C339.479 409.688 361.443 386.83 388.538 386.83C396.378 386.83 403.788 388.747 410.361 392.15C411.875 391.733 412.698 391.517 413.315 390.726C416.172 387.063 430.522 365.408 431.098 364.582C431.166 364.484 431.228 364.385 431.284 364.287C425.38 358.284 421.713 349.907 421.713 340.638C421.713 322.377 435.937 307.573 453.484 307.573Z" fill="#1E3A8A"/>
<path d="M453.484 307.573V296.573H453.484L453.484 307.573ZM485.257 340.638L496.257 340.638V340.638H485.257ZM453.484 373.702L453.484 384.702H453.484V373.702ZM443.76 372.121L447.247 361.688L443.28 360.362L439.434 362.007L443.76 372.121ZM442.483 373.184L451.505 379.477L451.505 379.477L442.483 373.184ZM424.106 398.878L415.084 392.585L415.083 392.587L424.106 398.878ZM423.497 402.069L412.519 402.77L412.773 406.74L415.507 409.629L423.497 402.069ZM437.599 437.885H448.599V437.885L437.599 437.885ZM422.83 474.391L414.985 466.68L411.507 470.218L411.858 475.167L422.83 474.391ZM423.616 477.041L414.642 483.402L414.642 483.402L423.616 477.041ZM449.768 509.519L441.124 516.322L441.124 516.322L449.768 509.519ZM451.301 510.829L446.179 520.564L450.797 522.994L455.6 520.954L451.301 510.829ZM463.297 508.389L463.297 497.389H463.297V508.389ZM495.068 541.453L506.068 541.453V541.453H495.068ZM463.297 574.517V585.517H463.297L463.297 574.517ZM431.524 541.453H420.524V541.453L431.524 541.453ZM437.078 522.773L446.262 528.827L448.869 524.873L447.787 520.261L437.078 522.773ZM436.235 521.053L444.879 514.25L444.879 514.25L436.235 521.053ZM410.79 487.973L419.434 481.17L419.433 481.168L410.79 487.973ZM406.167 485.873L406.65 474.884L406.649 474.884L406.167 485.873ZM405.355 485.86L405.164 474.862L403.245 474.895L401.451 475.577L405.355 485.86ZM388.538 488.939L388.538 499.939H388.538V488.939ZM350.299 469.866L359.001 463.137L356.574 459.999L352.703 459.132L350.299 469.866ZM347.96 470.271L342.359 460.803L342.359 460.803L347.96 470.271ZM320.542 486.104L314.941 476.636H314.941L320.542 486.104ZM318.885 488.061L309.249 482.755L307.271 486.348L308.127 490.358L318.885 488.061ZM319.388 492.829H330.388V492.829L319.388 492.829ZM298.361 514.71L298.361 525.71H298.361V514.71ZM277.336 492.829L266.336 492.829V492.829H277.336ZM298.361 470.949V459.949H298.361L298.361 470.949ZM311.379 475.646L304.396 484.145L306.807 486.125L309.898 486.545L311.379 475.646ZM311.496 475.661L310.368 486.603L310.369 486.603L311.496 475.661ZM314.716 475.439L319.857 485.164L319.857 485.164L314.716 475.439ZM341.812 459.019L347.414 468.486H347.414L341.812 459.019ZM343.257 457.562L352.936 462.789L355.387 458.249L353.464 453.461L343.257 457.562ZM339.479 437.885L328.479 437.885V437.885H339.479ZM388.538 386.83V375.83H388.538L388.538 386.83ZM410.361 392.15L405.304 401.919L409.131 403.9L413.285 402.755L410.361 392.15ZM413.315 390.726L421.989 397.491L421.989 397.491L413.315 390.726ZM431.098 364.582L440.12 370.875L440.12 370.875L431.098 364.582ZM431.284 364.287L440.802 369.803L445.004 362.55L439.127 356.574L431.284 364.287ZM421.713 340.638H410.713V340.638L421.713 340.638ZM453.484 307.573V318.573C464.547 318.573 474.257 328.035 474.257 340.638H485.257H496.257C496.257 316.719 477.516 296.573 453.484 296.573V307.573ZM485.257 340.638L474.257 340.638C474.257 353.241 464.547 362.702 453.484 362.702V373.702V384.702C477.516 384.702 496.257 364.556 496.257 340.638L485.257 340.638ZM453.484 373.702L453.484 362.702C451.304 362.702 449.213 362.346 447.247 361.688L443.76 372.121L440.273 382.554C444.437 383.946 448.88 384.702 453.484 384.702L453.484 373.702ZM443.76 372.121L439.434 362.007C437.094 363.008 435.018 364.658 433.461 366.89L442.483 373.184L451.505 379.477C450.69 380.646 449.5 381.63 448.086 382.235L443.76 372.121ZM442.483 373.184L433.462 366.89C432.896 367.701 429.012 373.11 424.838 378.929C420.747 384.633 416.401 390.697 415.084 392.585L424.106 398.878L433.128 405.171C434.338 403.438 438.56 397.545 442.715 391.752C446.787 386.074 450.829 380.446 451.505 379.477L442.483 373.184ZM424.106 398.878L415.083 392.587C413.499 394.859 412.97 397.219 412.76 398.416C412.506 399.863 412.43 401.362 412.519 402.77L423.497 402.069L434.475 401.368C434.494 401.674 434.481 401.924 434.428 402.224C434.399 402.391 434.334 402.704 434.189 403.123C434.057 403.501 433.756 404.271 433.13 405.169L424.106 398.878ZM423.497 402.069L415.507 409.629C422.33 416.842 426.599 426.796 426.599 437.885L437.599 437.885L448.599 437.885C448.599 421.064 442.102 405.728 431.488 394.509L423.497 402.069ZM437.599 437.885H426.599C426.599 449.253 422.112 459.428 414.985 466.68L422.83 474.391L430.675 482.101C441.769 470.814 448.599 455.131 448.599 437.885H437.599ZM422.83 474.391L411.858 475.167C411.992 477.069 412.394 480.231 414.642 483.402L423.616 477.041L432.591 470.68C433.095 471.391 433.445 472.17 433.647 472.892C433.814 473.49 433.819 473.851 433.803 473.614L422.83 474.391ZM423.616 477.041L414.642 483.402C416.692 486.295 423.345 494.537 429.186 501.714C432.192 505.408 435.11 508.975 437.325 511.679C438.435 513.035 439.361 514.165 440.041 514.996C440.381 515.411 440.653 515.744 440.852 515.987C441.083 516.271 441.145 516.349 441.124 516.322L449.768 509.519L458.412 502.715C457.018 500.945 435.981 475.465 432.591 470.68L423.616 477.041ZM449.768 509.519L441.124 516.322C442.524 518.101 444.231 519.539 446.179 520.564L451.301 510.829L456.422 501.094C457.325 501.569 457.985 502.173 458.411 502.715L449.768 509.519ZM451.301 510.829L455.6 520.954C457.978 519.944 460.568 519.389 463.297 519.389V508.389V497.389C457.536 497.389 452.027 498.57 447.001 500.704L451.301 510.829ZM463.297 508.389L463.297 519.389C474.359 519.389 484.068 528.85 484.068 541.453H495.068H506.068C506.068 517.535 487.329 497.389 463.297 497.389L463.297 508.389ZM495.068 541.453L484.068 541.453C484.068 554.056 474.36 563.516 463.297 563.517L463.297 574.517L463.297 585.517C487.328 585.516 506.068 565.372 506.068 541.453L495.068 541.453ZM463.297 574.517V563.517C452.234 563.517 442.524 554.056 442.524 541.453L431.524 541.453L420.524 541.453C420.524 565.372 439.266 585.517 463.297 585.517V574.517ZM431.524 541.453H442.524C442.524 536.714 443.921 532.379 446.262 528.827L437.078 522.773L427.894 516.72C423.229 523.797 420.524 532.329 420.524 541.453H431.524ZM437.078 522.773L447.787 520.261C447.291 518.146 446.331 516.095 444.879 514.25L436.235 521.053L427.591 527.856C427.033 527.146 426.597 526.26 426.369 525.286L437.078 522.773ZM436.235 521.053L444.879 514.25C444.05 513.196 438.668 506.173 432.928 498.691C427.27 491.315 421.291 483.529 419.434 481.17L410.79 487.973L402.146 494.776C403.893 496.996 409.752 504.625 415.473 512.082C421.112 519.433 426.65 526.66 427.591 527.856L436.235 521.053ZM410.79 487.973L419.433 481.168C417.325 478.491 414.544 477.086 413.061 476.442C411.395 475.718 409.104 474.991 406.65 474.884L406.167 485.873L405.684 496.862C405.044 496.834 404.654 496.734 404.566 496.711C404.436 496.677 404.357 496.646 404.293 496.619C404.24 496.596 404.059 496.515 403.781 496.328C403.561 496.182 402.877 495.705 402.147 494.777L410.79 487.973ZM406.167 485.873L406.649 474.884C406.112 474.86 405.619 474.854 405.164 474.862L405.355 485.86L405.547 496.859C405.532 496.859 405.575 496.858 405.685 496.862L406.167 485.873ZM405.355 485.86L401.451 475.577C397.427 477.104 393.085 477.939 388.538 477.939V488.939V499.939C395.807 499.939 402.793 498.6 409.26 496.144L405.355 485.86ZM388.538 488.939L388.538 477.939C376.726 477.939 366.063 472.271 359.001 463.137L350.299 469.866L341.597 476.595C352.519 490.72 369.43 499.939 388.538 499.939L388.538 488.939ZM350.299 469.866L352.703 459.132C349.508 458.416 345.812 458.76 342.359 460.803L347.96 470.271L353.561 479.738C352.801 480.187 351.853 480.552 350.766 480.708C349.693 480.863 348.711 480.783 347.894 480.6L350.299 469.866ZM347.96 470.271L342.359 460.803C341.498 461.313 335.701 464.647 329.488 468.225C323.386 471.738 316.917 475.467 314.941 476.636L320.542 486.104L326.143 495.571C327.975 494.487 334.28 490.852 340.467 487.29C346.543 483.79 352.552 480.335 353.561 479.738L347.96 470.271ZM320.542 486.104L314.941 476.636C311.78 478.507 309.981 481.425 309.249 482.755L318.885 488.061L328.521 493.366C328.455 493.486 328.345 493.669 328.136 493.921C328.025 494.055 327.836 494.27 327.557 494.527C327.293 494.771 326.824 495.168 326.143 495.571L320.542 486.104ZM318.885 488.061L308.127 490.358C308.297 491.151 308.388 491.977 308.388 492.829L319.388 492.829L330.388 492.829C330.388 490.406 330.129 488.04 329.642 485.763L318.885 488.061ZM319.388 492.829H308.388C308.388 499.255 303.49 503.71 298.361 503.71V514.71V525.71C316.457 525.71 330.388 510.572 330.388 492.829H319.388ZM298.361 514.71L298.362 503.71C293.234 503.71 288.336 499.256 288.336 492.829H277.336H266.336C266.336 510.571 280.265 525.71 298.361 525.71L298.361 514.71ZM277.336 492.829L288.336 492.829C288.336 486.403 293.233 481.949 298.362 481.949L298.361 470.949L298.361 459.949C280.265 459.95 266.336 475.087 266.336 492.829L277.336 492.829ZM298.361 470.949V481.949C300.598 481.949 302.679 482.734 304.396 484.145L311.379 475.646L318.361 467.146C312.918 462.674 305.956 459.949 298.361 459.949V470.949ZM311.379 475.646L309.898 486.545C309.866 486.541 309.843 486.538 309.848 486.538C309.849 486.539 309.85 486.539 309.853 486.539C309.855 486.539 309.86 486.54 309.865 486.541C309.874 486.542 309.89 486.544 309.909 486.547C309.977 486.557 310.15 486.581 310.368 486.603L311.496 475.661L312.624 464.719C312.718 464.729 312.795 464.738 312.851 464.745C312.906 464.752 312.948 464.758 312.966 464.76C312.977 464.762 312.994 464.765 312.968 464.761C312.954 464.759 312.911 464.753 312.86 464.746L311.379 475.646ZM311.496 475.661L310.369 486.603C310.969 486.665 315.454 487.492 319.857 485.164L314.716 475.439L309.574 465.715C310.128 465.422 310.759 465.175 311.442 465.008C312.105 464.847 312.65 464.802 312.99 464.791C313.298 464.781 313.466 464.799 313.356 464.791C313.228 464.781 313.06 464.764 312.623 464.719L311.496 475.661ZM314.716 475.439L319.857 485.164C322.31 483.867 329.27 479.636 335.229 475.985C338.318 474.092 341.303 472.253 343.565 470.858C344.7 470.158 345.645 469.575 346.34 469.146C347.105 468.674 347.417 468.484 347.414 468.486L341.812 459.019L336.211 449.551C334.587 450.512 313.444 463.669 309.574 465.715L314.716 475.439ZM341.812 459.019L347.414 468.486C349.866 467.035 351.716 465.046 352.936 462.789L343.257 457.562L333.578 452.335C334.239 451.111 335.193 450.154 336.211 449.551L341.812 459.019ZM343.257 457.562L353.464 453.461C351.548 448.691 350.479 443.435 350.479 437.885H339.479H328.479C328.479 446.282 330.1 454.32 333.05 461.662L343.257 457.562ZM339.479 437.885L350.479 437.885C350.479 415.346 367.927 397.83 388.538 397.83L388.538 386.83L388.538 375.83C354.959 375.83 328.479 404.03 328.479 437.885L339.479 437.885ZM388.538 386.83V397.83C394.561 397.83 400.242 399.298 405.304 401.919L410.361 392.15L415.419 382.382C407.334 378.196 398.196 375.83 388.538 375.83V386.83ZM410.361 392.15L413.285 402.755C413.709 402.638 418.684 401.727 421.989 397.491L413.315 390.726L404.642 383.96C405.092 383.383 405.646 382.835 406.287 382.363C406.906 381.908 407.453 381.636 407.792 381.489C408.099 381.356 408.279 381.307 408.169 381.341C408.043 381.379 407.876 381.425 407.438 381.546L410.361 392.15ZM413.315 390.726L421.989 397.491C423.724 395.267 428.315 388.492 432.191 382.727C434.209 379.725 436.154 376.814 437.627 374.607C438.366 373.5 438.98 372.579 439.433 371.902C439.937 371.147 440.131 370.859 440.12 370.875L431.098 364.582L422.076 358.289C420.94 359.917 407.308 380.542 404.642 383.96L413.315 390.726ZM431.098 364.582L440.12 370.875C440.407 370.463 440.633 370.093 440.802 369.803L431.284 364.287L421.767 358.772C421.822 358.677 421.926 358.504 422.075 358.289L431.098 364.582ZM431.284 364.287L439.127 356.574C435.207 352.589 432.713 346.967 432.713 340.638L421.713 340.638L410.713 340.638C410.713 352.847 415.552 363.978 423.442 372L431.284 364.287ZM421.713 340.638H432.713C432.713 328.034 442.422 318.573 453.484 318.573L453.484 307.573L453.484 296.573C429.453 296.573 410.713 316.72 410.713 340.638H421.713Z" fill="white" mask="url(#path-7-outside-2_4_39)"/>
<ellipse cx="494.5" cy="373.547" rx="9.5" ry="10" fill="#1E3A8A"/>
<circle cx="366" cy="495.547" r="11" fill="#1E3A8A" stroke="white" stroke-width="8"/>
<path d="M595.147 256.083V547.916L364 692.413L132.853 547.916V256.083L364 111.586L595.147 256.083Z" stroke="#1E3A8A" stroke-width="40"/>
<circle cx="314" cy="437.547" r="8.5" fill="#1E3A8A" stroke="white" stroke-width="7"/>
</g>
<defs>
<clipPath id="clip0_4_39">
<rect width="1641" height="817" fill="white"/>
</clipPath>
</defs>
</svg>
